<svg xmlns="http://www.w3.org/2000/svg" width="893" height="1112" viewBox="0 0 893 1112" fill="none"><g clip-path="url(#clip0_216_726)"><g clip-path="url(#clip1_216_726)"><mask id="mask0_216_726" style="mask-type:luminance" maskUnits="userSpaceOnUse" x="-1027" y="-5010" width="1920" height="7152"><path d="M893 -5010H-1027V2142H893V-5010Z" fill="white"></path></mask><g mask="url(#mask0_216_726)"><path opacity="0.3" d="M950 1932C1474.12 1932 1899 1507.12 1899 983C1899 458.882 1474.12 34 950 34C425.882 34 1 458.882 1 983C1 1507.12 425.882 1932 950 1932Z" fill="url(#paint0_radial_216_726)"></path><path opacity="0.3" d="M1060 3007C1584.12 3007 2009 2582.12 2009 2058C2009 1533.88 1584.12 1109 1060 1109C535.882 1109 111 1533.88 111 2058C111 2582.12 535.882 3007 1060 3007Z" fill="url(#paint1_radial_216_726)"></path></g></g></g><defs><radialGradient id="paint0_radial_216_726" cx="0" cy="0" r="1" gradientUnits="userSpaceOnUse" gradientTransform="translate(950 983) scale(949)"><stop stop-color="#F583B3"></stop><stop offset="1" stop-color="#010611" stop-opacity="0"></stop></radialGradient><radialGradient id="paint1_radial_216_726" cx="0" cy="0" r="1" gradientUnits="userSpaceOnUse" gradientTransform="translate(1060 2058) scale(949)"><stop stop-color="#F583B3"></stop><stop offset="1" stop-color="#010611" stop-opacity="0"></stop></radialGradient><clipPath id="clip0_216_726"><rect width="893" height="1112" fill="white"></rect></clipPath><clipPath id="clip1_216_726"><rect width="1920" height="7152" fill="white" transform="translate(-1027 -5010)"></rect></clipPath></defs></svg>