<svg xmlns="http://www.w3.org/2000/svg" width="728" height="1112" viewBox="0 0 728 1112" fill="none"><g clip-path="url(#clip0_216_726)"><g clip-path="url(#clip1_216_726)"><mask id="mask0_216_726" style="mask-type:luminance" maskUnits="userSpaceOnUse" x="0" y="-5010" width="1920" height="7152"><path d="M1920 -5010H0V2142H1920V-5010Z" fill="white"></path></mask><g mask="url(#mask0_216_726)"><path opacity="0.3" d="M-224 1654C300.118 1654 725 1229.12 725 705C725 180.882 300.118 -244 -224 -244C-748.118 -244 -1173 180.882 -1173 705C-1173 1229.12 -748.118 1654 -224 1654Z" fill="url(#paint0_radial_216_726)"></path><path opacity="0.3" d="M-95 2777C429.118 2777 854 2352.12 854 1828C854 1303.88 429.118 879 -95 879C-619.118 879 -1044 1303.88 -1044 1828C-1044 2352.12 -619.118 2777 -95 2777Z" fill="url(#paint1_radial_216_726)"></path></g></g></g><defs><radialGradient id="paint0_radial_216_726" cx="0" cy="0" r="1" gradientUnits="userSpaceOnUse" gradientTransform="translate(-224 705) scale(949)"><stop stop-color="#F583B3"></stop><stop offset="1" stop-color="#010611" stop-opacity="0"></stop></radialGradient><radialGradient id="paint1_radial_216_726" cx="0" cy="0" r="1" gradientUnits="userSpaceOnUse" gradientTransform="translate(-95 1828) scale(949)"><stop stop-color="#F583B3"></stop><stop offset="1" stop-color="#010611" stop-opacity="0"></stop></radialGradient><clipPath id="clip0_216_726"><rect width="728" height="1112" fill="white"></rect></clipPath><clipPath id="clip1_216_726"><rect width="1920" height="7152" fill="white" transform="translate(0 -5010)"></rect></clipPath></defs></svg>